<svg width="834" height="823" viewBox="0 0 834 823" fill="none" xmlns="http://www.w3.org/2000/svg">
    <path d="M86.4907 -88.5376L127.279 -107.335C162.54 -123.585 200.904 -132 239.73 -132H611.358C802.803 -132 958 23.1968 958 214.642V763.416C958 811.009 904.554 839.022 865.416 811.943C862.205 809.721 858.781 807.823 855.194 806.278L816.056 789.412C790.589 778.437 764.232 769.657 737.272 763.166L638.064 739.282C616.017 733.974 593.139 731.292 570.462 731.292C531.83 731.292 493.121 739.176 457.642 754.463L442.343 761.054C396.291 780.896 345.076 785.387 296.274 773.863L278.865 769.752C233.232 758.977 193.292 731.496 166.92 692.728C127.896 635.362 123.738 561.137 156.11 499.772L183.732 447.412C190.86 433.899 195.678 419.289 197.984 404.186C204.264 363.06 191.51 321.309 163.321 290.713L69.4225 188.799C62.2898 181.058 55.7178 172.818 49.7566 164.142L26.3482 130.073C-3.04167 87.2995 -7.92646 32.2718 13.4692 -15.0103C28.1732 -47.5048 54.0985 -73.6096 86.4907 -88.5376Z" fill="url(#paint0_linear_45_17456)"/>
    <defs>
        <linearGradient id="paint0_linear_45_17456" x1="1705.68" y1="-532.387" x2="-44.1263" y2="807.67" gradientUnits="userSpaceOnUse">
            <stop stop-color="#E89E10"/>
            <stop offset="1" stop-color="#E89E10" stop-opacity="0.7"/>
        </linearGradient>
    </defs>
</svg>
