<svg width="20" height="20" viewBox="0 0 20 20" fill="none" xmlns="http://www.w3.org/2000/svg">
    <path d="M20 10C20 15.5228 15.5228 20 10 20C4.47715 20 -2.08214e-06 15.5228 -2.08214e-06 10C-2.08214e-06 4.47715 4.47715 0 10 0C15.5228 0 20 4.47715 20 10Z"
          fill="#31765A" fill-opacity="0.8"/>
    <path d="M20 10C20 15.5228 15.5228 20 10 20C4.47715 20 -2.08214e-06 15.5228 -2.08214e-06 10C-2.08214e-06 4.47715 4.47715 0 10 0C15.5228 0 20 4.47715 20 10Z"
          fill="#31765A" fill-opacity="0.8"/>
</svg>
