<svg width="837" height="980" viewBox="0 0 837 980" fill="none" xmlns="http://www.w3.org/2000/svg">
    <path d="M63.4196 328.078L26.1081 248.967C-2.2622 188.814 -7.05623 120.212 12.6719 56.6974C30.6773 -1.27049 68.7005 -51.8174 119.096 -85.6523C163.683 -115.588 216.807 -132 270.511 -132H544.404C786.082 -132 982 63.9181 982 305.595V1233.1C982 1282.71 921.931 1307.45 886.993 1272.24C884.006 1269.23 880.684 1266.57 877.091 1264.31L839.692 1240.83C811.931 1223.4 782.31 1209.13 751.379 1198.28L654.787 1164.4C632.624 1156.63 609.307 1152.66 585.82 1152.66C546.63 1152.66 508.234 1163.71 475.041 1184.55L462.092 1192.68C411.976 1224.13 350.319 1231.23 294.367 1211.98C244.175 1194.72 203.149 1157.8 180.692 1109.71L161.815 1069.28C128.103 997.088 124.406 914.467 151.535 839.548L190.476 732.01C198.212 710.646 203.32 688.421 205.689 665.823C212.258 603.157 197.512 540.105 163.833 486.851L63.4196 328.078Z"
          fill="url(#paint0_linear_45_17456)"/>
    <defs>
        <linearGradient id="paint0_linear_45_17456" x1="1745.71" y1="-727.814" x2="-475.962" y2="440.076"
                        gradientUnits="userSpaceOnUse">
            <stop stop-color="#E89E10"/>
            <stop offset="1" stop-color="#E89E10" stop-opacity="0.7"/>
        </linearGradient>
    </defs>
</svg>
