<svg width="1182" height="895" viewBox="0 0 1182 895" fill="none" xmlns="http://www.w3.org/2000/svg">
<path d="M199.439 863.061C200.025 863.646 200.975 863.646 201.561 863.061L211.107 853.515C211.692 852.929 211.692 851.979 211.107 851.393C210.521 850.808 209.571 850.808 208.985 851.393L200.5 859.879L192.015 851.393C191.429 850.808 190.479 850.808 189.893 851.393C189.308 851.979 189.308 852.929 189.893 853.515L199.439 863.061ZM199 720V862H202V720H199Z" fill="#E89E10" fill-opacity="0.8"/>
<path d="M699.439 325.061C700.025 325.646 700.975 325.646 701.561 325.061L711.107 315.515C711.692 314.929 711.692 313.979 711.107 313.393C710.521 312.808 709.571 312.808 708.985 313.393L700.5 321.879L692.015 313.393C691.429 312.808 690.479 312.808 689.893 313.393C689.308 313.979 689.308 314.929 689.893 315.515L699.439 325.061ZM699 219V324H702V219H699Z" fill="#E89E10" fill-opacity="0.8"/>
<path d="M639.645 780.145C638.816 780.145 638.145 780.816 638.145 781.645L638.145 795.145C638.145 795.973 638.816 796.645 639.645 796.645C640.473 796.645 641.145 795.973 641.145 795.145L641.145 783.145L653.145 783.145C653.973 783.145 654.645 782.473 654.645 781.645C654.645 780.816 653.973 780.145 653.145 780.145L639.645 780.145ZM817.482 957.361L640.705 780.584L638.584 782.705L815.361 959.482L817.482 957.361Z" fill="#E89E10" fill-opacity="0.8"/>
<path d="M1181.06 823.561C1181.65 822.975 1181.65 822.025 1181.06 821.439L1171.51 811.893C1170.93 811.308 1169.98 811.308 1169.39 811.893C1168.81 812.479 1168.81 813.429 1169.39 814.015L1177.88 822.5L1169.39 830.985C1168.81 831.571 1168.81 832.521 1169.39 833.107C1169.98 833.692 1170.93 833.692 1171.51 833.107L1181.06 823.561ZM1018 824H1180V821H1018V824Z" fill="#E89E10" fill-opacity="0.8"/>
<path d="M59.1299 100.778C58.4551 101.259 58.2976 102.195 58.7781 102.87L66.6086 113.867C67.0891 114.542 68.0257 114.7 68.7006 114.219C69.3754 113.738 69.5329 112.802 69.0524 112.127L62.0919 102.352L71.867 95.3915C72.5418 94.911 72.6994 93.9744 72.2188 93.2996C71.7383 92.6248 70.8017 92.4673 70.1269 92.9478L59.1299 100.778ZM302.249 141.221L60.2488 100.521L59.7512 103.479L301.751 144.179L302.249 141.221Z" fill="#E89E10" fill-opacity="0.8"/>
<path d="M622.434 481.907C622.298 481.089 621.526 480.537 620.709 480.673L607.391 482.885C606.574 483.02 606.021 483.793 606.157 484.61C606.293 485.427 607.065 485.98 607.883 485.844L619.72 483.878L621.687 495.716C621.823 496.533 622.595 497.085 623.412 496.95C624.229 496.814 624.782 496.041 624.646 495.224L622.434 481.907ZM420.62 764.873L622.175 483.025L619.734 481.28L418.18 763.127L420.62 764.873Z" fill="#E89E10" fill-opacity="0.8"/>
<path d="M59.8137 564.26C60.5096 563.811 60.7095 562.882 60.2602 562.186L52.9376 550.845C52.4882 550.149 51.5598 549.949 50.8638 550.398C50.1678 550.848 49.9679 551.776 50.4173 552.472L56.9262 562.553L46.8449 569.062C46.1489 569.512 45.949 570.44 46.3984 571.136C46.8477 571.832 47.7762 572.032 48.4721 571.583L59.8137 564.26ZM-215.316 505.466L58.6843 564.466L59.3158 561.534L-214.684 502.534L-215.316 505.466Z" fill="#E89E10" fill-opacity="0.8"/>
<path d="M497.5 143.421C497.5 144.25 498.172 144.921 499 144.921L512.5 144.921C513.328 144.921 514 144.25 514 143.421C514 142.593 513.328 141.921 512.5 141.921L500.5 141.921L500.5 129.921C500.5 129.093 499.828 128.421 499 128.421C498.172 128.421 497.5 129.093 497.5 129.921L497.5 143.421ZM639.361 0.93934L497.939 142.361L500.061 144.482L641.482 3.06066L639.361 0.93934Z" fill="#E89E10" fill-opacity="0.8"/>
</svg>
