<svg width="341" height="340" viewBox="0 0 341 340" fill="none" xmlns="http://www.w3.org/2000/svg">
    <path d="M204.056 335.951V335.951C209.117 221.694 177.749 107.187 116.026 10.9034V10.9034" stroke="white"
          stroke-width="12"/>
    <circle cx="170.531" cy="170" r="163" stroke="white" stroke-width="14"/>
    <path d="M8.94656 153.168L57.7865 161.142C80.0734 164.781 102.792 164.918 125.121 161.547L133.518 160.28C164.417 155.616 193.62 143.164 218.378 124.098V124.098C241.685 106.149 260.352 82.8769 272.815 56.2309L278.254 44.604"
          stroke="white" stroke-width="12"/>
    <path d="M332.956 171.683V171.683C303.372 168.892 273.541 170.342 244.367 175.989L236.174 177.574L226.262 180.193C203.226 186.278 181.049 195.241 160.255 206.872V206.872C148.046 213.7 136.36 221.423 125.291 229.976L104.887 245.743L60.2833 288.663"
          stroke="white" stroke-width="12"/>
</svg>
